<svg width="1200" height="630" viewBox="0 0 1200 630" fill="none" xmlns="http://www.w3.org/2000/svg">
<path d="M1035.81 1096.82L274.384 -136.794L1723.43 -179.4L1035.81 1096.82Z" fill="url(#paint0_linear)"/>
<path d="M-228.875 -462.821L1069.62 181.742L-137.835 983.992L-228.875 -462.821Z" fill="url(#paint1_linear)"/>
<path d="M30.1868 274.667L1415.72 701.101L353.652 1687.79L30.1868 274.667Z" fill="url(#paint2_linear)"/>
<path d="M1119.44 413.942L1095.71 552.762L987.353 462.796L1119.44 413.942Z" fill="url(#paint3_linear)"/>
<path d="M1013.1 443.311H1041.38V499.168H1013.1V443.311Z" fill="white"/>
<path d="M1056.94 471.135C1056.94 455.768 1069.39 443.311 1084.76 443.311C1100.13 443.311 1112.59 455.768 1112.59 471.135C1112.59 486.502 1100.13 498.96 1084.76 498.96C1069.39 498.96 1056.94 486.502 1056.94 471.135Z" fill="white"/>
<path d="M1056.94 498.96V472.079L1084.76 498.96H1056.94Z" fill="white"/>
<path d="M1056.94 443.311V470.192L1084.76 443.311H1056.94Z" fill="white"/>
<defs>
<linearGradient id="paint0_linear" x1="2172.5" y1="61.5" x2="1152.29" y2="-1208.24" gradientUnits="userSpaceOnUse">
<stop stop-color="#45D5C6" stop-opacity="0.62"/>
<stop offset="0.583333" stop-color="#8472F2"/>
<stop offset="1" stop-color="#EC5E5C"/>
</linearGradient>
<linearGradient id="paint1_linear" x1="-920.913" y1="1034.7" x2="890.892" y2="1555.34" gradientUnits="userSpaceOnUse">
<stop stop-color="#45D5C6"/>
<stop offset="0.0416667" stop-color="#8472F2"/>
<stop offset="1" stop-color="#EC5E5C"/>
</linearGradient>
<linearGradient id="paint2_linear" x1="-262" y1="660" x2="421.5" y2="1516" gradientUnits="userSpaceOnUse">
<stop stop-color="#45D5C6"/>
<stop offset="0.442708" stop-color="#8472F2"/>
<stop offset="1" stop-color="#EC5E5C"/>
</linearGradient>
<linearGradient id="paint3_linear" x1="960.778" y1="391.343" x2="962.899" y2="574.469" gradientUnits="userSpaceOnUse">
<stop stop-color="#45D5C6"/>
<stop offset="0.489583" stop-color="#8472F2"/>
<stop offset="1" stop-color="#EC5E5C"/>
</linearGradient>
</defs>
</svg>
